<svg version="1.0" xmlns="http://www.w3.org/2000/svg"
 width="594.000000pt" height="420.000000pt" viewBox="0 0 594.000000 420.000000"
 preserveAspectRatio="xMidYMid meet">
<metadata>
Created by potrace 1.16, written by Peter Selinger 2001-2019
</metadata>
<g transform="translate(0.000000,420.000000) scale(0.100000,-0.100000)"
fill="#1877f2" stroke="none">
<path d="M2815 3899 c-179 -18 -263 -35 -415 -86 -191 -63 -417 -188 -575
-317 -59 -48 -191 -178 -230 -227 -11 -13 -36 -45 -56 -69 -158 -196 -275
-454 -341 -755 -29 -134 -36 -453 -14 -600 18 -112 56 -271 81 -335 47 -122
101 -242 138 -305 149 -254 350 -465 597 -626 213 -139 510 -244 759 -269 383
-38 718 23 1046 192 331 169 626 473 785 806 22 45 40 85 40 88 0 3 6 20 14
37 36 84 48 121 75 232 40 163 51 261 51 439 0 206 -39 445 -94 586 -8 19 -24
60 -36 90 -33 84 -122 260 -132 260 -4 0 -8 5 -8 10 0 17 -81 130 -160 225
-29 34 -155 160 -191 190 -206 172 -387 273 -624 350 -129 42 -249 66 -415 80
-170 16 -179 16 -295 4z m73 -134 c74 -49 72 -34 72 -608 0 -386 3 -516 12
-525 16 -16 55 -15 65 1 4 6 10 224 13 484 5 457 6 472 26 499 34 46 70 67
124 72 59 5 100 -13 140 -61 l25 -31 5 -529 c5 -521 5 -530 26 -543 17 -12 23
-12 40 0 18 14 19 33 24 389 5 360 6 377 26 403 38 52 70 69 132 69 48 0 63
-5 94 -30 73 -58 70 -10 66 -885 -4 -848 -3 -822 -60 -999 -19 -58 -101 -228
-117 -241 -3 -3 -11 -16 -18 -30 -86 -185 -90 -208 -97 -515 l-5 -230 -26 -22
-26 -23 -425 0 c-423 0 -455 2 -476 34 -4 6 -8 115 -8 241 0 255 -4 280 -65
415 -46 101 -82 159 -190 305 -90 121 -174 248 -280 423 -6 10 -35 55 -66 102
-30 47 -93 147 -139 222 -100 166 -108 201 -63 288 50 97 150 127 251 76 38
-19 64 -48 137 -146 50 -67 95 -127 100 -133 74 -82 105 -151 120 -262 12 -98
43 -159 145 -291 117 -152 286 -367 307 -393 13 -14 23 -29 23 -33 0 -14 71
-8 86 6 20 20 17 53 -6 84 -172 223 -189 254 -145 259 20 3 34 -13 220 -256
33 -43 70 -84 82 -91 29 -17 66 -6 83 24 13 26 4 42 -190 296 -27 36 -49 73
-50 83 0 29 31 33 52 6 44 -55 70 -88 129 -164 34 -44 68 -87 76 -95 7 -8 24
-29 38 -47 33 -41 59 -49 90 -29 39 26 33 64 -22 134 -199 250 -247 327 -204
327 8 0 62 -63 121 -140 58 -77 118 -146 132 -154 23 -13 29 -13 52 2 45 30
29 101 -34 157 -7 6 -187 238 -238 307 -48 64 -39 76 40 52 34 -11 81 -19 102
-17 33 2 43 9 59 35 17 29 17 34 3 61 -16 31 -56 52 -186 96 -41 14 -100 35
-130 46 -89 35 -109 40 -245 64 -129 24 -130 24 -167 66 -40 45 -225 285 -268
347 l-25 36 -3 352 c-3 392 -2 401 63 451 74 56 171 38 227 -42 l27 -39 3
-425 c3 -400 4 -425 21 -428 47 -9 47 -13 47 529 0 575 -1 564 72 612 56 36
123 37 176 2z"/>
</g>
</svg>
